<svg width="64" height="64" viewBox="0 0 64 64" fill="none" xmlns="http://www.w3.org/2000/svg">
<rect x="2.5" y="2.5" width="59" height="59" stroke="#7C0000" stroke-dasharray="5 5"/>
<path d="M39.918 42.6094V48H22.5547V43.4883C27.6979 35.0768 30.7513 29.875 31.7148 27.8828C32.6914 25.8776 33.1797 24.3151 33.1797 23.1953C33.1797 22.3359 33.0299 21.6979 32.7305 21.2812C32.444 20.8516 32.0013 20.6367 31.4023 20.6367C30.8034 20.6367 30.3542 20.8711 30.0547 21.3398C29.7682 21.8086 29.625 22.7396 29.625 24.1328V27.1406H22.5547V25.9883C22.5547 24.2174 22.6458 22.8242 22.8281 21.8086C23.0104 20.7799 23.4596 19.7708 24.1758 18.7812C24.8919 17.7917 25.8229 17.043 26.9688 16.5352C28.1146 16.0273 29.4883 15.7734 31.0898 15.7734C34.2279 15.7734 36.5977 16.5547 38.1992 18.1172C39.8138 19.6667 40.6211 21.6328 40.6211 24.0156C40.6211 25.8255 40.1654 27.7396 39.2539 29.7578C38.3555 31.776 35.6927 36.0599 31.2656 42.6094H39.918Z" fill="#7C0000"/>
<circle cx="2.5" cy="2.5" r="2.5" fill="#7C0000"/>
<circle cx="61.5" cy="2.5" r="2.5" fill="#7C0000"/>
<circle cx="61.5" cy="61.5" r="2.5" fill="#7C0000"/>
<circle cx="2.5" cy="61.5" r="2.5" fill="#7C0000"/>
</svg>
