<svg width="64" height="64" viewBox="0 0 64 64" fill="none" xmlns="http://www.w3.org/2000/svg">
<rect x="2.5" y="2.5" width="59" height="59" stroke="#7C0000" stroke-dasharray="5 5"/>
<path d="M37.2305 30.0898C38.4284 30.4935 39.3203 31.1576 39.9062 32.082C40.4922 32.9935 40.7852 35.1419 40.7852 38.5273C40.7852 41.0404 40.4987 42.9935 39.9258 44.3867C39.3529 45.7669 38.3633 46.8216 36.957 47.5508C35.5508 48.2669 33.7474 48.625 31.5469 48.625C29.0469 48.625 27.0807 48.2083 25.6484 47.375C24.2292 46.5286 23.2917 45.5 22.8359 44.2891C22.3932 43.0651 22.1719 40.9492 22.1719 37.9414V35.4414H30.0625V40.5781C30.0625 41.9453 30.1406 42.8177 30.2969 43.1953C30.4661 43.5599 30.8307 43.7422 31.3906 43.7422C32.0026 43.7422 32.4062 43.5078 32.6016 43.0391C32.7969 42.5703 32.8945 41.3464 32.8945 39.3672V37.1797C32.8945 35.9688 32.7578 35.0833 32.4844 34.5234C32.2109 33.9635 31.8073 33.599 31.2734 33.4297C30.7396 33.2474 29.7044 33.1432 28.168 33.1172V28.5273C30.043 28.5273 31.2018 28.4557 31.6445 28.3125C32.0872 28.1693 32.4062 27.8568 32.6016 27.375C32.7969 26.8932 32.8945 26.138 32.8945 25.1094V23.3516C32.8945 22.2448 32.7773 21.5156 32.543 21.1641C32.3216 20.8125 31.9701 20.6367 31.4883 20.6367C30.9414 20.6367 30.5638 20.8255 30.3555 21.2031C30.1602 21.5677 30.0625 22.3555 30.0625 23.5664V26.1641H22.1719V23.4688C22.1719 20.4479 22.862 18.4102 24.2422 17.3555C25.6224 16.2878 27.8164 15.7539 30.8242 15.7539C34.5872 15.7539 37.1393 16.4896 38.4805 17.9609C39.8216 19.4323 40.4922 21.4766 40.4922 24.0938C40.4922 25.8646 40.2513 27.1471 39.7695 27.9414C39.2878 28.7227 38.4414 29.4388 37.2305 30.0898Z" fill="#7C0000"/>
<circle cx="2.5" cy="2.5" r="2.5" fill="#7C0000"/>
<circle cx="61.5" cy="2.5" r="2.5" fill="#7C0000"/>
<circle cx="61.5" cy="61.5" r="2.5" fill="#7C0000"/>
<circle cx="2.5" cy="61.5" r="2.5" fill="#7C0000"/>
</svg>
